<?xml version="1.0" encoding="UTF-8" standalone="no"?>
<svg
   xmlns:dc="http://purl.org/dc/elements/1.1/"
   xmlns:cc="http://creativecommons.org/ns#"
   xmlns:rdf="http://www.w3.org/1999/02/22-rdf-syntax-ns#"
   xmlns:svg="http://www.w3.org/2000/svg"
   xmlns="http://www.w3.org/2000/svg"
   xmlns:sodipodi="http://sodipodi.sourceforge.net/DTD/sodipodi-0.dtd"
   xmlns:inkscape="http://www.inkscape.org/namespaces/inkscape"
   viewBox="0 0 277 259"
   width="60%"
   height="70%"
   version="1.1"
   id="svg14"
   sodipodi:docname="logo.svg"
   inkscape:version="0.92.2 5c3e80d, 2017-08-06"
   inkscape:export-filename="/home/mubaris/dev/filmoji/static/img/logo.svg.png"
   inkscape:export-xdpi="300"
   inkscape:export-ydpi="300">
  <metadata
     id="metadata18">
    <rdf:RDF>
      <cc:Work
         rdf:about="">
        <dc:format>image/svg+xml</dc:format>
        <dc:type
           rdf:resource="http://purl.org/dc/dcmitype/StillImage" />
      </cc:Work>
    </rdf:RDF>
  </metadata>
  <sodipodi:namedview
     pagecolor="#ffffff"
     bordercolor="#666666"
     borderopacity="1"
     objecttolerance="10"
     gridtolerance="10"
     guidetolerance="10"
     inkscape:pageopacity="0"
     inkscape:pageshadow="2"
     inkscape:window-width="1366"
     inkscape:window-height="717"
     id="namedview16"
     showgrid="false"
     inkscape:zoom="0.91119691"
     inkscape:cx="138.5"
     inkscape:cy="129.5"
     inkscape:window-x="0"
     inkscape:window-y="25"
     inkscape:window-maximized="1"
     inkscape:current-layer="svg14" />
  <defs
     id="SvgjsDefs1052" />
  <g
     id="main_text"
     rel="mainfill"
     name="main_text"
     feature="main_text"
     groupname="main_text"
     transform="matrix(4.4547967,0,0,4.4547967,85.661228,114.35566)"
     style="fill:#4dc3fa;fill-opacity:0.94117647">
    <path
       d="m 13.77,8.90575 -0.61523,2.4414 h -6.5918 l -0.71289,3.6914 6.0742,-0.01953 -0.60547,2.3926 h -5.9277 l -1.2012,6.1816 h -2.6074 l 2.8516,-14.688 h 9.3359 z m 1.454584,14.688 h -2.4219 l 1.6992,-8.6816 h -1.1035 l 0.39063,-1.9922 h 3.5254 z m -0.2051,-13.965 c 0.17578,-0.9375 1.1328,-1.6895 2.002,-1.6895 0.87891,0 1.5332,0.75195 1.3574,1.6895 -0.18555,0.9375 -1.1426,1.6797 -2.0117,1.6797 -0.8691,0 -1.5332,-0.74219 -1.3477,-1.6797 z m 5.693369,14.10172 c -2.4805,0 -2.5781,-1.4551 -2.2949,-2.8711 l 2.2852,-11.758 2.627,-0.9082 -2.4707,12.666 c -0.12695,0.66406 0.08789,0.84961 0.54688,0.84961 0.25391,0 0.44922,-0.06836 0.98633,-0.13672 l -0.05859,1.8066 c -0.74219,0.25391 -1.1719,0.35156 -1.6211,0.35156 z m 17.881116,-0.13672 h -2.5 l 1.2598,-6.4844 c 0.24414,-1.2402 -0.01953,-2.2168 -1.2695,-2.1387 -1.0352,0.06836 -1.9531,1.0059 -2.5,1.9043 l -1.2891,6.7188 h -2.5 l 1.2598,-6.4844 c 0.23438,-1.2012 -0.01953,-2.2363 -1.2109,-2.1387 -1.1816,0.09766 -2.0215,1.1035 -2.6172,2.002 l -1.2793,6.6211 h -2.4902 l 2.0703,-10.674 h 2.1094 l -0.08789,1.5723 c 1.0254,-0.9375 1.8945,-1.6406 3.0664,-1.748 1.1328,-0.10742 2.5781,0.2832 2.9395,1.9922 0.83008,-0.84961 1.9141,-1.8848 3.3203,-1.9922 2.9199,-0.21484 3.4668,1.8359 2.9688,4.3848 z m 8.466562,-8.6719 c -1.582,0 -2.7051,1.6895 -3.0273,3.3496 -0.3418,1.7871 0.32227,3.3789 1.709,3.3789 1.4844,0 2.666,-1.5625 3.0176,-3.3594 0.36133,-1.8652 -0.07813,-3.3691 -1.6992,-3.3691 z m -1.7285,8.91604 c -3.5059,0 -4.2676,-3.0566 -3.7793,-5.5566 0.42969,-2.2363 2.3242,-5.5469 5.9375,-5.5469 3.7109,0 4.1895,3.3008 3.75,5.5371 -0.49805,2.5586 -2.4609,5.5664 -5.9082,5.5664 z m 9.501941,1.22066 c -0.27344,1.4648 -1.2988,2.8711 -3.3594,2.8711 -0.41992,0 -1.0059,-0.07813 -1.6406,-0.36133 l 0.63477,-1.6992 c 0.3125,0.07813 0.56641,0.11719 0.82031,0.11719 0.42969,0 0.9375,-0.12695 1.084,-0.83984 l 1.9629,-10.215 h -1.123 l 0.39063,-2.0117 h 3.584 z m 2.0899,-17.1188 c 0.84961,0 1.543,0.75195 1.3574,1.6992 -0.1856,0.94725 -1.1621,1.6797 -2.0117,1.6797 -0.8496,0 -1.543,-0.73242 -1.3574,-1.6797 0.1856,-0.94728 1.1621,-1.6992 2.0117,-1.6992 z m 3.486259,15.654 h -2.4219 l 1.6992,-8.6816 h -1.1035 l 0.39063,-1.9922 h 3.5254 z m -0.2051,-13.965 c 0.17578,-0.9375 1.1328,-1.6895 2.002,-1.6895 0.87891,0 1.5332,0.75195 1.3574,1.6895 -0.18555,0.9375 -1.1426,1.6797 -2.0117,1.6797 -0.8691,0 -1.5332,-0.74219 -1.3477,-1.6797 z"
       id="path3"
       inkscape:connector-curvature="0"
       style="fill:#4dc3fa;fill-opacity:0.94117647" />
  </g>
  <g
     id="SvgjsG1079"
     rel="mainfill"
     name="main_text"
     feature="main_text_2"
     groupname="main_text_2"
     transform="matrix(4.4547967,0,0,4.4547967,227.6257,326.67655)"
     style="fill:#4dc3fa;fill-opacity:0.94117647">
    <path
       d=""
       id="path6"
       inkscape:connector-curvature="0"
       style="fill:#4dc3fa;fill-opacity:0.94117647" />
  </g>
</svg>
